#!OML:ASF H:\Male1\Project 1\Capture day 1\Session 1\Male1.ASF
:FULLY-SPECIFIED
:DEGREES
514
root 11.1315 21.4923 0.425512 258.244 -84.0955 -254.222
lowerback 16.1839 1.30596 -9.38219
upperback 6.23562 -0.544356 -6.35323
thorax -2.39374 -0.555576 -1.33916
lowerneck -10.2553 4.02714 4.40806
upperneck 17.7906 4.19285 1.55283
head 7.21501 2.34429 0.152246
rclavicle 7.95139e-015 3.18055e-014
rhumerus -41.5177 11.503 -92.3225
rradius 46.3103
rwrist -23.1575
rhand -15.3754 0.450988
rfingers 7.12502
rthumb 10.8027 -29.2512
lclavicle 7.95139e-015 3.18055e-014
lhumerus -11.1696 -18.3425 84.8894
lradius 41.1815
lwrist 6.07292
lhand -21.7188 9.50024
lfingers 7.12502
lthumb 4.68028 39.4285
rfemur -35.236 -12.4524 14.319
rtibia 94.8525
rfoot -3.26913 -6.40369
rtoes -29.472
lfemur -25.4162 1.1269 -33.1954
ltibia 46.9538
lfoot -26.2211 6.92468
ltoes -15.8403
515
root 11.0116 21.5304 0.420971 261 -84.1957 -257.138
lowerback 16.1761 1.2705 -9.4972
upperback 6.28714 -0.600676 -6.31891
thorax -2.32932 -0.588254 -1.229
lowerneck -10.2601 4.00334 4.4095
upperneck 17.7765 4.15873 1.56415
head 7.21061 2.32917 0.152405
rclavicle -3.18055e-015 3.65764e-014
rhumerus -41.7748 11.1824 -92.237
rradius 45.9821
rwrist -22.9542
rhand -15.2577 0.452143
rfingers 7.12502
rthumb 10.9162 -29.2441
lclavicle -3.18055e-015 3.65764e-014
lhumerus -11.5437 -19.0703 85.4752
lradius 42.5295
lwrist 6.33434
lhand -21.3383 8.78798
lfingers 7.12502
lthumb 5.04774 38.7079
rfemur -37.3237 -12.4509 14.404
rtibia 96.5762
rfoot -4.54175 -6.16528
rtoes -30.3235
lfemur -24.209 1.19246 -33.1338
ltibia 46.0716
lfoot -26.1233 6.74785
ltoes -15.9459
516
root 10.8925 21.5574 0.415138 263.637 -84.3026 -259.944
lowerback 16.2153 1.24835 -9.57108
upperback 6.32351 -0.640506 -6.27804
thorax -2.30721 -0.610429 -1.13778
lowerneck -10.224 3.96447 4.42784
upperneck 17.7312 4.10535 1.56856
head 7.18911 2.30496 0.144543
rclavicle 1.03368e-014 -9.54166e-015
rhumerus -42.0365 10.9226 -92.1774
rradius 45.6708
rwrist -22.7782
rhand -15.1298 0.507948
rfingers 7.12502
rthumb 11.0396 -29.1817
lclavicle 1.03368e-014 -9.54166e-015
lhumerus -12.012 -19.6942 86.0266
lradius 43.8078
lwrist 6.50232
lhand -20.9868 8.10403
lfingers 7.12502
lthumb 5.38706 38.0156
rfemur -39.3276 -12.2955 14.6089
rtibia 97.6551
rfoot -5.78322 -6.23317
rtoes -30.8429
lfemur -23.1384 1.25668 -33.0429
ltibia 45.4369
lfoot -26.0926 6.54141
ltoes -15.8032
517
root 10.7736 21.5729 0.408343 266.37 -84.4039 -262.845
lowerback 16.2866 1.22582 -9.61882
upperback 6.34786 -0.681561 -6.23031
thorax -2.3153 -0.631349 -1.05351
lowerneck -10.1601 3.91605 4.43146
upperneck 17.6588 4.04166 1.58504
head 7.15316 2.27559 0.141143
rclavicle -1.90833e-014 -8.5875e-014
rhumerus -42.2917 10.7353 -92.1327
rradius 45.3826
rwrist -22.6164
rhand -15.0052 0.591386
rfingers 7.12502
rthumb 11.1597 -29.0918
lclavicle -1.90833e-014 -8.5875e-014
lhumerus -12.5549 -20.2074 86.5323
lradius 44.9912
lwrist 6.60204
lhand -20.6823 7.5128
lfingers 7.12502
lthumb 5.68111 37.4166
rfemur -41.2326 -12.0083 14.8931
rtibia 98.1004
rfoot -6.88687 -6.52271
rtoes -30.9908
lfemur -22.2259 1.31851 -32.9439
ltibia 45.0747
lfoot -26.1393 6.30718
ltoes -15.4574
518
root 10.6556 21.5761 0.40026 269.231 -84.4964 -265.859
lowerback 16.3727 1.19891 -9.65211
upperback 6.36035 -0.727834 -6.17297
thorax -2.34362 -0.653307 -0.96592
lowerneck -10.0957 3.8731 4.41658
upperneck 17.5713 3.9871 1.61477
head 7.11158 2.25049 0.145752
rclavicle 1.59028e-015 1.27222e-014
rhumerus -42.5248 10.6046 -92.0901
rradius 45.1092
rwrist -22.4415
rhand -14.8913 0.681832
rfingers 7.12502
rthumb 11.2696 -28.9954
lclavicle 1.59028e-015 1.27222e-014
lhumerus -13.1394 -20.6181 86.9774
lradius 46.057
lwrist 6.64199
lhand -20.4936 7.13158
lfingers 7.12502
lthumb 5.86329 37.0305
rfemur -43.0309 -11.592 15.2392
rtibia 97.9241
rfoot -7.73392 -6.94197
rtoes -30.665
lfemur -21.509 1.39067 -32.8371
ltibia 45.0092
lfoot -26.2566 6.05317
ltoes -14.997
519
root 10.5367 21.5669 0.391162 272.285 -84.5391 -269.058
lowerback 16.4528 1.16971 -9.7043
upperback 6.37815 -0.778995 -6.11557
thorax -2.36218 -0.67848 -0.86688
lowerneck -10.0421 3.83166 4.37628
upperneck 17.4662 3.93812 1.65327
head 7.06549 2.22725 0.157923
rclavicle 1.98785e-014 7.15625e-014
rhumerus -42.7206 10.5105 -92.038
rradius 44.8449
rwrist -22.2518
rhand -14.7996 0.763909
rfingers 7.12502
rthumb 11.358 -28.9085
lclavicle 1.98785e-014 7.15625e-014
lhumerus -13.7143 -20.9438 87.3481
lradius 46.9602
lwrist 6.6308
lhand -20.4474 6.8286
lfingers 7.12502
lthumb 5.90788 36.7262
rfemur -44.647 -11.0813 15.5577
rtibia 97.1463
rfoot -8.27584 -7.31153
rtoes -30.1761
lfemur -20.9638 1.48393 -32.7662
ltibia 45.2318
lfoot -26.4315 5.80354
ltoes -14.5775
